<svg xmlns="http://www.w3.org/2000/svg" xmlns:xlink="http://www.w3.org/1999/xlink" viewBox="0 0 34.7 76.98"><defs><linearGradient id="Nouvelle_nuance_de_dégradé_1_3" x1="16.97" y1="11.37" x2="27.29" y2="11.37" gradientUnits="userSpaceOnUse"><stop offset="0" stop-color="#0062ff"/><stop offset="1" stop-color="#a8c0ff"/></linearGradient><linearGradient id="Nouvelle_nuance_de_dégradé_1_3-2" x1="7.08" y1="11.37" x2="17.19" y2="11.37" xlink:href="#Nouvelle_nuance_de_dégradé_1_3"/><linearGradient id="Nouvelle_nuance_de_dégradé_1_3-3" x1="17.06" y1="25.8" x2="27.3" y2="25.8" xlink:href="#Nouvelle_nuance_de_dégradé_1_3"/><linearGradient id="Nouvelle_nuance_de_dégradé_1_3-4" x1="7.08" y1="25.8" x2="17.19" y2="25.8" xlink:href="#Nouvelle_nuance_de_dégradé_1_3"/><linearGradient id="Nouvelle_nuance_de_dégradé_1_3-5" x1="17.19" y1="17.46" x2="27.29" y2="17.46" xlink:href="#Nouvelle_nuance_de_dégradé_1_3"/><linearGradient id="Nouvelle_nuance_de_dégradé_1_3-6" x1="7.08" y1="17.46" x2="17.19" y2="17.46" xlink:href="#Nouvelle_nuance_de_dégradé_1_3"/></defs><g id="Calque_2" data-name="Calque 2"><g id="Calque_1-2" data-name="Calque 1"><polygon points="34.65 45.56 34.7 66.47 16.5 76.98 16.44 56.07 34.65 45.56" style="fill:#f2f2f2;opacity:0.9"/><polygon points="16.5 76.98 0.06 67.43 0 46.52 16.44 56.07 16.5 76.98" style="fill:#e6e6e6"/><polygon points="16.44 56.07 0 46.52 18.21 36.01 34.65 45.56 16.44 56.07" style="fill:#fcfafa"/><path d="M17.36,43.11c3.73-.52,6.74.43,6.74,2.12s-3,3.49-6.75,4-6.75-.42-6.75-2.12S13.63,43.64,17.36,43.11Z" style="fill:#f2f2f2"/><polygon points="17.19 0 16.96 0.75 16.96 22.52 17.19 22.74 27.29 16.77 17.19 0" style="fill:url(#Nouvelle_nuance_de_dégradé_1_3)"/><polygon points="17.19 0 7.08 16.77 17.19 22.74 17.19 12.17 17.19 0" style="fill:url(#Nouvelle_nuance_de_dégradé_1_3-2)"/><polygon points="17.19 24.65 17.06 24.8 17.06 32.56 17.19 32.92 27.3 18.68 17.19 24.65" style="fill:url(#Nouvelle_nuance_de_dégradé_1_3-3)"/><polygon points="17.19 32.92 17.19 24.65 7.08 18.68 17.19 32.92" style="fill:url(#Nouvelle_nuance_de_dégradé_1_3-4)"/><polygon points="17.19 22.74 27.29 16.77 17.19 12.17 17.19 22.74" style="fill:url(#Nouvelle_nuance_de_dégradé_1_3-5)"/><polygon points="7.08 16.77 17.19 22.74 17.19 12.17 7.08 16.77" style="fill:url(#Nouvelle_nuance_de_dégradé_1_3-6)"/></g></g></svg>