<svg xmlns="http://www.w3.org/2000/svg" xmlns:xlink="http://www.w3.org/1999/xlink" viewBox="0 0 34.7 69.45"><defs><linearGradient id="Nouvelle_nuance_de_dégradé_1_3" x1="13.58" y1="25.92" x2="18.53" y2="25.92" gradientUnits="userSpaceOnUse"><stop offset="0" stop-color="#0062ff"/><stop offset="1" stop-color="#a8c0ff"/></linearGradient><linearGradient id="Nouvelle_nuance_de_dégradé_1_3-2" x1="10.42" y1="20.98" x2="18.53" y2="20.98" xlink:href="#Nouvelle_nuance_de_dégradé_1_3"/><linearGradient id="Nouvelle_nuance_de_dégradé_1_3-3" x1="9.23" y1="15.57" x2="13.49" y2="15.57" xlink:href="#Nouvelle_nuance_de_dégradé_1_3"/><linearGradient id="Nouvelle_nuance_de_dégradé_1_3-4" x1="3.62" y1="9.39" x2="11.75" y2="9.39" xlink:href="#Nouvelle_nuance_de_dégradé_1_3"/><linearGradient id="Nouvelle_nuance_de_dégradé_1_3-5" x1="8.68" y1="11.99" x2="15.68" y2="11.99" xlink:href="#Nouvelle_nuance_de_dégradé_1_3"/><linearGradient id="Nouvelle_nuance_de_dégradé_1_3-6" x1="12.62" y1="17.32" x2="30.2" y2="17.32" xlink:href="#Nouvelle_nuance_de_dégradé_1_3"/><linearGradient id="Nouvelle_nuance_de_dégradé_1_3-7" x1="27.13" y1="23.17" x2="30.23" y2="23.17" xlink:href="#Nouvelle_nuance_de_dégradé_1_3"/><linearGradient id="Nouvelle_nuance_de_dégradé_1_3-8" x1="3.62" y1="18.1" x2="27.16" y2="18.1" xlink:href="#Nouvelle_nuance_de_dégradé_1_3"/><linearGradient id="Nouvelle_nuance_de_dégradé_1_3-9" x1="3.64" y1="6.73" x2="21.26" y2="6.73" xlink:href="#Nouvelle_nuance_de_dégradé_1_3"/><linearGradient id="Nouvelle_nuance_de_dégradé_1_3-10" x1="18.2" y1="11.87" x2="24.63" y2="11.87" xlink:href="#Nouvelle_nuance_de_dégradé_1_3"/><linearGradient id="Nouvelle_nuance_de_dégradé_1_3-11" x1="3.64" y1="11.06" x2="27.18" y2="11.06" xlink:href="#Nouvelle_nuance_de_dégradé_1_3"/><linearGradient id="Nouvelle_nuance_de_dégradé_1_3-12" x1="17.22" y1="10.17" x2="30.24" y2="10.17" xlink:href="#Nouvelle_nuance_de_dégradé_1_3"/></defs><g id="Calque_2" data-name="Calque 2"><g id="Calque_1-2" data-name="Calque 1"><polygon points="34.65 38.03 34.7 58.94 16.5 69.45 16.44 48.54 34.65 38.03" style="fill:#f2f2f2;opacity:0.9"/><polygon points="16.5 69.45 0.06 59.9 0 38.98 16.44 48.54 16.5 69.45" style="fill:#e6e6e6"/><polygon points="16.44 48.54 0 38.98 18.21 28.47 34.65 38.03 16.44 48.54" style="fill:#fcfafa"/><path d="M16.94,36.48c3.2,1.85,5.8,4.26,5.79,5.37s-2.6.53-5.8-1.32-5.8-4.26-5.8-5.37S13.74,34.63,16.94,36.48Z" style="fill:#f2f2f2"/><polygon points="15.47 26.24 18.53 24.46 16.64 25.6 13.58 27.38 15.47 26.24" style="fill:url(#Nouvelle_nuance_de_dégradé_1_3)"/><polygon points="10.42 17.49 13.48 15.71 18.53 24.46 15.47 26.24 10.42 17.49" style="fill:url(#Nouvelle_nuance_de_dégradé_1_3-2)"/><polygon points="9.23 15.44 12.29 13.65 13.48 15.71 10.42 17.49 9.23 15.44" style="fill:url(#Nouvelle_nuance_de_dégradé_1_3-3)"/><polygon points="3.62 8.82 6.69 7.04 11.75 9.96 8.68 11.74 3.62 8.82" style="fill:url(#Nouvelle_nuance_de_dégradé_1_3-4)"/><polygon points="8.68 11.74 11.75 9.96 15.68 12.23 12.62 14.02 8.68 11.74" style="fill:url(#Nouvelle_nuance_de_dégradé_1_3-5)"/><polygon points="12.62 14.02 15.68 12.23 30.2 20.62 27.13 22.4 12.62 14.02" style="fill:url(#Nouvelle_nuance_de_dégradé_1_3-6)"/><polygon points="27.13 22.4 30.2 20.62 30.23 23.94 27.16 25.72 27.13 22.4" style="fill:url(#Nouvelle_nuance_de_dégradé_1_3-7)"/><polygon points="27.13 22.4 27.16 25.72 12.61 17.36 9.23 15.44 10.42 17.49 15.47 26.24 13.58 27.38 13.52 27.35 3.62 8.82 8.68 11.74 12.62 14.02 27.13 22.4" style="fill:url(#Nouvelle_nuance_de_dégradé_1_3-8)"/><polygon points="3.64 3.44 6.71 1.66 21.26 10.02 18.2 11.8 3.64 3.44" style="fill:url(#Nouvelle_nuance_de_dégradé_1_3-9)"/><polygon points="18.2 11.8 21.26 10.02 24.63 11.94 21.57 13.72 18.2 11.8" style="fill:url(#Nouvelle_nuance_de_dégradé_1_3-10)"/><polygon points="17.22 1.78 27.18 20.34 22.12 17.42 18.19 15.15 3.67 6.77 3.64 3.44 18.2 11.8 21.57 13.72 20.38 11.67 15.34 2.92 17.22 1.78" style="fill:url(#Nouvelle_nuance_de_dégradé_1_3-11)"/><polygon points="17.22 1.78 20.29 0 30.24 18.56 27.18 20.34 17.22 1.78" style="fill:url(#Nouvelle_nuance_de_dégradé_1_3-12)"/></g></g></svg>