<svg xmlns="http://www.w3.org/2000/svg" xmlns:xlink="http://www.w3.org/1999/xlink" viewBox="0 0 34.7 72.73"><defs><clipPath id="clip-path"><path d="M8.89,3.58,13.82.72c1.94-1.13,4.62-1,7.58.74L16.48,4.33C13.51,2.62,10.83,2.46,8.89,3.58Z" style="fill:#0062ff"/></clipPath><clipPath id="clip-path-2"><path d="M28.92,26.72,24,29.59c1.92-1.12,3.11-3.48,3.12-6.85,0-6.77-4.74-15-10.63-18.41L21.4,1.46C27.3,4.86,32.05,13.11,32,19.88,32,23.24,30.84,25.61,28.92,26.72Z" style="fill:#0062ff"/></clipPath><linearGradient id="Dégradé_sans_nom_3" x1="5.78" y1="16.59" x2="27.11" y2="16.59" gradientUnits="userSpaceOnUse"><stop offset="0" stop-color="#0062ff"/><stop offset="1" stop-color="#a8c0ff"/></linearGradient></defs><g id="Calque_2" data-name="Calque 2"><g id="Calque_1-2" data-name="Calque 1"><polygon points="16.5 72.73 0.06 63.17 0 42.26 16.44 51.81 16.5 72.73" style="fill:#e6e6e6"/><polygon points="34.65 41.3 34.7 62.21 16.5 72.73 16.44 51.81 34.65 41.3" style="fill:#f2f2f2;opacity:0.9"/><polygon points="16.44 51.81 0 42.26 18.21 31.75 34.65 41.3 16.44 51.81" style="fill:#fcfafa"/><path d="M16.94,39.76c3.2,1.85,5.8,4.25,5.79,5.37s-2.6.53-5.8-1.32-5.8-4.26-5.8-5.38S13.74,37.91,16.94,39.76Z" style="fill:#f2f2f2"/><path d="M8.89,3.58,13.82.72c1.94-1.13,4.62-1,7.58.74L16.48,4.33C13.51,2.62,10.83,2.46,8.89,3.58Z" style="fill:#0062ff"/><g style="clip-path:url(#clip-path)"><path d="M8.89,3.58,13.82.72a5.18,5.18,0,0,1,.86-.4L9.75,3.18a6.14,6.14,0,0,0-.86.4" style="fill:#0062ff"/><path d="M9.75,3.18,14.68.32a5.89,5.89,0,0,1,.75-.2L10.5,3a5.89,5.89,0,0,0-.75.2" style="fill:#0062ff"/><path d="M10.5,3,15.43.12A6,6,0,0,1,16,0L11.11,2.89A6,6,0,0,0,10.5,3" style="fill:#0062ff"/><path d="M11.11,2.89,16,0a5.07,5.07,0,0,1,.55,0L11.66,2.86a5.07,5.07,0,0,0-.55,0" style="fill:#0062ff"/><path d="M11.66,2.86,16.59,0a4.1,4.1,0,0,1,.5,0L12.17,2.88l-.51,0" style="fill:#0062ff"/><path d="M12.17,2.88,17.09,0l.48,0L12.64,2.93l-.47-.05" style="fill:#0062ff"/><path d="M12.64,2.93,17.57.06,18,.14,13.11,3l-.47-.08" style="fill:#0062ff"/><path d="M13.11,3,18,.14l.43.1L13.54,3.1,13.11,3" style="fill:#0062ff"/><path d="M13.54,3.1,18.47.24l.44.12L14,3.22l-.45-.12" style="fill:#0062ff"/><path d="M14,3.22,18.91.36l.43.14L14.41,3.36,14,3.22" style="fill:#0062ff"/><path d="M14.41,3.36,19.34.5l.43.16L14.84,3.53l-.43-.17" style="fill:#0062ff"/><path d="M14.84,3.53,19.77.66l.43.18L15.27,3.71a3.93,3.93,0,0,0-.43-.18" style="fill:#0062ff"/><path d="M15.27,3.71,20.2.84l.43.21L15.7,3.91l-.43-.2" style="fill:#0062ff"/><path d="M15.7,3.91l4.93-2.86.44.22L16.14,4.14l-.44-.23" style="fill:#0062ff"/><path d="M16.14,4.14l4.93-2.87.33.19L16.48,4.33l-.34-.19" style="fill:#0062ff"/></g><path d="M28.92,26.72,24,29.59c1.92-1.12,3.11-3.48,3.12-6.85,0-6.77-4.74-15-10.63-18.41L21.4,1.46C27.3,4.86,32.05,13.11,32,19.88,32,23.24,30.84,25.61,28.92,26.72Z" style="fill:#0062ff"/><g style="clip-path:url(#clip-path-2)"><polyline points="16.48 4.33 21.4 1.46 21.51 1.52 16.58 4.39 16.48 4.33" style="fill:#0062ff"/><path d="M16.58,4.39l4.93-2.87L22,1.8,17,4.66l-.45-.27" style="fill:#0062ff"/><path d="M17,4.66,22,1.8l.45.3L17.49,5,17,4.66" style="fill:#0062ff"/><path d="M17.49,5,22.41,2.1l.47.33L18,5.29,17.49,5" style="fill:#0062ff"/><path d="M18,5.29l4.93-2.86c.16.11.31.23.47.36L18.42,5.65,18,5.29" style="fill:#0062ff"/><path d="M18.42,5.65l4.93-2.86.47.38L18.89,6l-.47-.39" style="fill:#0062ff"/><path d="M18.89,6l4.93-2.87.47.42L19.37,6.45,18.89,6" style="fill:#0062ff"/><path d="M19.37,6.45l4.92-2.86c.16.14.32.28.47.43L19.84,6.89l-.47-.44" style="fill:#0062ff"/><path d="M19.84,6.89,24.76,4l.45.45L20.28,7.33l-.44-.44" style="fill:#0062ff"/><path d="M20.28,7.33l4.93-2.86c.15.15.3.3.44.46L20.72,7.79c-.14-.16-.29-.31-.44-.46" style="fill:#0062ff"/><path d="M20.72,7.79l4.93-2.86c.14.15.28.3.41.46L21.14,8.25l-.42-.46" style="fill:#0062ff"/><path d="M21.14,8.25l4.92-2.86.42.48L21.55,8.73l-.41-.48" style="fill:#0062ff"/><path d="M21.55,8.73l4.93-2.86c.14.16.27.33.41.51L22,9.24l-.41-.51" style="fill:#0062ff"/><path d="M22,9.24l4.93-2.86c.16.2.32.41.47.62L22.43,9.86c-.15-.21-.31-.42-.47-.62" style="fill:#0062ff"/><path d="M22.43,9.86,27.36,7c.23.31.46.63.68,1l-4.93,2.87c-.22-.33-.44-.65-.68-1" style="fill:#0062ff"/><path d="M23.11,10.83,28,8c.27.41.54.83.79,1.26L23.9,12.08c-.25-.42-.52-.84-.79-1.25" style="fill:#0062ff"/><path d="M23.9,12.08l4.93-2.86c.18.31.35.62.52.94L24.43,13l-.53-.94" style="fill:#0062ff"/><path d="M24.43,13l4.92-2.86c.12.21.23.42.33.64l-4.92,2.86L24.43,13" style="fill:#0062ff"/><path d="M24.76,13.66l4.92-2.86a5.77,5.77,0,0,1,.27.56L25,14.22l-.27-.56" style="fill:#0062ff"/><path d="M25,14.22,30,11.36l.24.51-4.93,2.87c-.07-.18-.15-.35-.23-.52" style="fill:#0062ff"/><path d="M25.26,14.74l4.93-2.87.22.51-4.93,2.87c-.07-.17-.14-.34-.22-.51" style="fill:#0062ff"/><path d="M25.48,15.25l4.93-2.87.21.52-4.93,2.87-.21-.52" style="fill:#0062ff"/><path d="M25.69,15.77l4.93-2.87c.06.18.13.35.19.52l-4.93,2.87c-.06-.18-.12-.35-.19-.52" style="fill:#0062ff"/><path d="M25.88,16.29l4.93-2.87c.07.18.13.37.19.55l-4.93,2.86c-.06-.18-.12-.36-.19-.54" style="fill:#0062ff"/><path d="M26.07,16.83,31,14l.18.55-4.93,2.86c-.06-.18-.11-.36-.18-.55" style="fill:#0062ff"/><path d="M26.25,17.38l4.93-2.86c.06.19.11.37.16.56L26.42,18c-.06-.19-.11-.38-.17-.57" style="fill:#0062ff"/><path d="M26.42,18l4.92-2.87q.09.28.15.57l-4.93,2.86c0-.19-.09-.38-.14-.56" style="fill:#0062ff"/><path d="M26.56,18.51l4.93-2.86c.05.18.09.37.13.56l-4.93,2.86c0-.19-.08-.37-.13-.56" style="fill:#0062ff"/><path d="M26.69,19.07l4.93-2.86.12.55-4.93,2.87c0-.19-.07-.37-.12-.56" style="fill:#0062ff"/><path d="M26.81,19.63l4.93-2.87.09.54L26.9,20.17l-.09-.54" style="fill:#0062ff"/><path d="M26.9,20.17l4.93-2.87c0,.18.05.36.08.54L27,20.7c0-.18-.05-.35-.08-.53" style="fill:#0062ff"/><path d="M27,20.7l4.93-2.86c0,.17,0,.35.05.52L27,21.22,27,20.7" style="fill:#0062ff"/><path d="M27,21.22,32,18.36c0,.17,0,.35,0,.52l-4.92,2.86c0-.17,0-.34,0-.52" style="fill:#0062ff"/><path d="M27.08,21.74,32,18.88c0,.17,0,.34,0,.51L27.1,22.26c0-.17,0-.34,0-.52" style="fill:#0062ff"/><path d="M27.1,22.26,32,19.39c0,.17,0,.33,0,.49v0l-4.93,2.86v0c0-.16,0-.32,0-.48" style="fill:#0062ff"/><path d="M27.11,22.77,32,19.91c0,.17,0,.34,0,.51l-4.93,2.87c0-.17,0-.34,0-.52" style="fill:#0062ff"/><path d="M27.09,23.29,32,20.42a4.36,4.36,0,0,1,0,.51l-4.93,2.86a4.07,4.07,0,0,0,0-.5" style="fill:#0062ff"/><path d="M27.06,23.79,32,20.93c0,.17,0,.34,0,.51L27,24.31c0-.17,0-.34,0-.52" style="fill:#0062ff"/><path d="M27,24.31l4.93-2.87c0,.17-.05.34-.08.51l-4.93,2.87c0-.17.06-.34.08-.51" style="fill:#0062ff"/><path d="M26.93,24.82,31.86,22c0,.18-.06.35-.1.52l-4.93,2.87c0-.17.07-.35.1-.52" style="fill:#0062ff"/><path d="M26.83,25.34l4.93-2.87c0,.19-.09.37-.14.55l-4.93,2.86c0-.17.1-.36.14-.54" style="fill:#0062ff"/><path d="M26.69,25.88,31.62,23c-.06.19-.12.38-.19.56L26.5,26.45c.07-.19.13-.37.19-.57" style="fill:#0062ff"/><path d="M26.5,26.45l4.93-2.87a6.57,6.57,0,0,1-.26.61l-4.93,2.86a5.42,5.42,0,0,0,.26-.6" style="fill:#0062ff"/><path d="M26.24,27.05l4.93-2.86a5.68,5.68,0,0,1-.4.73l-4.93,2.86a5.68,5.68,0,0,0,.4-.73" style="fill:#0062ff"/><path d="M25.84,27.78l4.93-2.86a5.39,5.39,0,0,1-1.85,1.8L24,29.59a5.42,5.42,0,0,0,1.85-1.81" style="fill:#0062ff"/></g><path d="M16.48,4.33C22.37,7.73,27.13,16,27.11,22.74s-4.81,9.51-10.7,6.1S5.76,17.2,5.78,10.42,10.59.93,16.48,4.33Z" style="fill:url(#Dégradé_sans_nom_3)"/><polygon points="13.97 25.67 13.99 18.04 14.98 18.61 14.96 26.24 13.97 25.67" style="fill:#e5e5e5"/><polygon points="13.99 18.04 14.98 17.47 15.97 18.04 14.98 18.61 13.99 18.04" style="fill:#f2f2f2"/><polygon points="14.98 18.61 15.97 18.04 15.95 25.67 14.96 26.24 14.98 18.61" style="fill:#f2f2f2"/><polygon points="7.36 13.07 8.35 12.5 14.98 16.33 14 16.9 7.36 13.07" style="fill:#e5e5e5"/><polygon points="14 16.9 14.98 16.33 15.97 16.9 14.99 17.47 14 16.9" style="fill:#f2f2f2"/><polygon points="14.99 17.47 15.97 16.9 22.61 20.73 21.62 21.3 14.99 17.47" style="fill:#f2f2f2"/><polygon points="21.62 21.3 21.62 22.44 14.98 18.61 13.99 18.04 7.36 14.21 7.36 13.07 14 16.9 14.99 17.47 21.62 21.3" style="fill:#e5e5e5"/><polygon points="21.62 21.3 22.61 20.73 22.6 21.87 21.62 22.44 21.62 21.3" style="fill:#e5e5e5"/><polygon points="14.02 9.28 15.01 9.85 14.99 17.47 13.99 16.9 14.02 9.28" style="fill:#e5e5e5"/><polygon points="14.02 9.28 15 8.71 15.99 9.28 15.01 9.85 14.02 9.28" style="fill:#e5e5e5"/><polygon points="15.01 9.85 15.99 9.28 15.97 16.9 14.99 17.47 15.01 9.85" style="fill:#f2f2f2"/></g></g></svg>