<svg xmlns="http://www.w3.org/2000/svg" viewBox="0 0 120.52 114.89"><g id="Calque_2" data-name="Calque 2"><g id="Calque_1-2" data-name="Calque 1"><path d="M118.82,78.8,98.37,14.12h0a16.9,16.9,0,0,0-33.3,1.52,1.38,1.38,0,0,0,.28,1,1.39,1.39,0,0,0-.4,1v5H55.57V17.37a1.37,1.37,0,0,0-.41-1,1.33,1.33,0,0,0,.29-1,16.9,16.9,0,0,0-33.3-1.52h0L1.7,78.51s0,0,0,.06a27.54,27.54,0,1,0,53.89,8V61.81H65v25a27.54,27.54,0,1,0,53.88-8S118.83,78.82,118.82,78.8ZM28,111.32A24.77,24.77,0,0,1,4.4,79.22h0A24.75,24.75,0,1,1,28,111.32ZM28,59a27.47,27.47,0,0,0-20,8.65l16.76-53a.15.15,0,0,0,0-.07s0,0,0-.06a14.12,14.12,0,0,1,27.84,1.15,1.32,1.32,0,0,0,.43.82,1.32,1.32,0,0,0-.32.86v6.11a1.3,1.3,0,0,0-.12.55,1.22,1.22,0,0,0,.12.54v50A27.58,27.58,0,0,0,28,59Zm27.54,0V25.43H65V59ZM67.73,17.65a1.37,1.37,0,0,0-.32-.85,1.42,1.42,0,0,0,.43-.82,14.12,14.12,0,0,1,27.84-1.16s0,0,0,.07a.17.17,0,0,0,0,.07l16.76,53a27.46,27.46,0,0,0-44.74,6.89V17.66ZM92.48,111.6a24.75,24.75,0,1,1,23.64-32.1h0a24.45,24.45,0,0,1,1.11,7.35A24.77,24.77,0,0,1,92.48,111.6Z" style="fill:#fff;stroke:#333;stroke-miterlimit:10"/><polygon points="28.04 75.23 27.89 75.74 27.89 90.74 28.04 90.89 35 86.77 28.04 75.23" style="fill:#fff;stroke:#fff;stroke-miterlimit:10;stroke-width:0.25px"/><polygon points="28.04 75.23 21.08 86.77 28.04 90.89 28.04 83.61 28.04 75.23" style="fill:#fff;stroke:#fff;stroke-miterlimit:10;stroke-width:0.25px"/><polygon points="28.04 92.21 27.95 92.31 27.95 97.65 28.04 97.9 35 88.09 28.04 92.21" style="fill:#fff;stroke:#fff;stroke-miterlimit:10;stroke-width:0.25px"/><polygon points="28.04 97.9 28.04 92.21 21.08 88.09 28.04 97.9" style="fill:#fff;stroke:#fff;stroke-miterlimit:10;stroke-width:0.25px"/><polygon points="28.04 90.89 35 86.77 28.04 83.61 28.04 90.89" style="fill:#fff;stroke:#fff;stroke-miterlimit:10;stroke-width:0.25px"/><polygon points="21.08 86.77 28.04 90.89 28.04 83.61 21.08 86.77" style="fill:#fff;stroke:#fff;stroke-miterlimit:10;stroke-width:0.25px"/><polygon points="92.48 75.23 92.33 75.74 92.33 90.74 92.48 90.89 99.44 86.77 92.48 75.23" style="fill:#fff;stroke:#fff;stroke-miterlimit:10;stroke-width:0.25px"/><polygon points="92.48 75.23 85.52 86.77 92.48 90.89 92.48 83.61 92.48 75.23" style="fill:#fff;stroke:#fff;stroke-miterlimit:10;stroke-width:0.25px"/><polygon points="92.48 92.21 92.4 92.31 92.4 97.65 92.48 97.9 99.45 88.09 92.48 92.21" style="fill:#fff;stroke:#fff;stroke-miterlimit:10;stroke-width:0.25px"/><polygon points="92.48 97.9 92.48 92.21 85.52 88.09 92.48 97.9" style="fill:#fff;stroke:#fff;stroke-miterlimit:10;stroke-width:0.25px"/><polygon points="92.48 90.89 99.44 86.77 92.48 83.61 92.48 90.89" style="fill:#fff;stroke:#fff;stroke-miterlimit:10;stroke-width:0.25px"/><polygon points="85.52 86.77 92.48 90.89 92.48 83.61 85.52 86.77" style="fill:#fff;stroke:#fff;stroke-miterlimit:10;stroke-width:0.25px"/><path d="M46.86,16a1.4,1.4,0,0,0-1.39,1.4V52.62a1.4,1.4,0,1,0,2.79,0V17.37A1.4,1.4,0,0,0,46.86,16Z" style="fill:#fff;stroke:#333;stroke-miterlimit:10"/><path d="M100.24,52.33a1.4,1.4,0,0,0,1.35,1,1.47,1.47,0,0,0,.36,0,1.4,1.4,0,0,0,1-1.71L93.84,17.3a1.4,1.4,0,0,0-2.7.71Z" style="fill:#fff;stroke:#333;stroke-miterlimit:10"/></g></g></svg>