<svg xmlns="http://www.w3.org/2000/svg" xmlns:xlink="http://www.w3.org/1999/xlink" viewBox="0 0 77.13 65.12"><defs><linearGradient id="Dégradé_sans_nom_274" x1="24.79" y1="41.42" x2="52.34" y2="41.42" gradientUnits="userSpaceOnUse"><stop offset="0" stop-color="#fd9b24"/><stop offset="1" stop-color="#fdd083"/></linearGradient><linearGradient id="Dégradé_sans_nom_274-2" x1="0" y1="42.14" x2="24.88" y2="42.14" xlink:href="#Dégradé_sans_nom_274"/><linearGradient id="Dégradé_sans_nom_274-3" x1="0" y1="18.45" x2="52.25" y2="18.45" xlink:href="#Dégradé_sans_nom_274"/><linearGradient id="Dégradé_sans_nom_274-4" x1="49.59" y1="38.1" x2="77.13" y2="38.1" xlink:href="#Dégradé_sans_nom_274"/><linearGradient id="Dégradé_sans_nom_274-5" x1="24.79" y1="38.83" x2="49.68" y2="38.83" xlink:href="#Dégradé_sans_nom_274"/><linearGradient id="Dégradé_sans_nom_274-6" x1="24.79" y1="15.13" x2="77.04" y2="15.13" xlink:href="#Dégradé_sans_nom_274"/></defs><g id="Calque_2" data-name="Calque 2"><g id="Calque_1-2" data-name="Calque 1"><polygon points="52.25 17.73 52.34 49.26 24.88 65.12 24.79 33.58 52.25 17.73" style="opacity:0.9;fill:url(#Dégradé_sans_nom_274)"/><polygon points="24.88 65.12 0.09 50.71 0 19.17 24.79 33.58 24.88 65.12" style="fill:url(#Dégradé_sans_nom_274-2)"/><polygon points="24.79 33.58 0 19.17 27.46 3.32 52.25 17.73 24.79 33.58" style="fill:url(#Dégradé_sans_nom_274-3)"/><polygon points="77.04 14.41 77.13 45.95 49.68 61.8 49.59 30.26 77.04 14.41" style="opacity:0.9;fill:url(#Dégradé_sans_nom_274-4)"/><polygon points="49.68 61.8 24.88 47.39 24.79 15.85 49.59 30.26 49.68 61.8" style="fill:url(#Dégradé_sans_nom_274-5)"/><polygon points="49.59 30.26 24.79 15.85 52.25 0 77.04 14.41 49.59 30.26" style="fill:url(#Dégradé_sans_nom_274-6)"/></g></g></svg>