<svg xmlns="http://www.w3.org/2000/svg" xmlns:xlink="http://www.w3.org/1999/xlink" viewBox="0 0 1472.92 915.37"><defs><linearGradient id="Dégradé_sans_nom_367" x1="4.63" y1="458.94" x2="1468.07" y2="458.94" gradientUnits="userSpaceOnUse"><stop offset="0" stop-color="#226ef6"/><stop offset="1" stop-color="#226ef6"/></linearGradient><linearGradient id="Dégradé_sans_nom_452" x1="5.05" y1="457.69" x2="801.25" y2="457.69" gradientUnits="userSpaceOnUse"><stop offset="0" stop-color="#226ef6"/><stop offset="1" stop-color="#226ef6" stop-opacity="0.9"/></linearGradient><linearGradient id="Dégradé_sans_nom_367-2" x1="557.89" y1="464.98" x2="1466.65" y2="464.98" xlink:href="#Dégradé_sans_nom_367"/><linearGradient id="Dégradé_sans_nom_367-3" x1="544.36" y1="529.2" x2="1462.95" y2="529.2" xlink:href="#Dégradé_sans_nom_367"/></defs><g id="Calque_2" data-name="Calque 2"><g id="Calque_1-2" data-name="Calque 1"><path d="M.74,12.74C42.47,82.83,88.57,151.28,144.13,211.26c35.59,38.4,75.88,74.19,122.6,98.48,31,16.14,65,26.8,100.17,28a183.53,183.53,0,0,0,73.76-12.33c25.1-9.93,47.32-25.1,69.32-40.48,23.79-16.64,47.88-33.15,74.85-44.29,33.13-13.7,68.94-19,104.67-18,74.76,2.12,147.39,31,208.5,73.06,61.52,42.37,114.37,100.43,145,169,16.18,36.16,22.52,73.68,24.27,113,1.53,34.19,3.83,67.7,16.21,100,25,65.21,76.1,115.48,135.27,150.75,60.81,36.25,129.39,58.52,198.14,74,16.5,3.72,33.09,7,49.73,10,6.3,1.13,9-8.51,2.66-9.65-69.19-12.46-138.32-30.27-202.18-60.18-62.17-29.11-120.57-71-156.07-130.94a234.35,234.35,0,0,1-32.12-102.6c-2.56-33.37-2.06-66.67-9.93-99.44-17.72-73.81-66.1-139.45-122.51-188.8-55.48-48.55-123-85.28-195.43-100.68-67.34-14.33-137.6-8.92-198.31,25-48,26.85-88.47,68-144,79.27-36.11,7.32-73.67,2.39-107.95-10.41-43.45-16.22-81.78-44.46-115.54-75.77-54.12-50.18-98.9-110-139.12-171.59q-19-29.12-36.73-59C6.08,2.17-2.56,7.19.74,12.74Z" style="fill:url(#Dégradé_sans_nom_367)"/><path d="M7.84,914.61C73.56,874.29,138,831.29,197.48,782.06c38.41-31.81,75.39-66.55,104.73-107.1,18.18-25.13,33.9-53.56,39.54-84.38,6.18-33.82-1.4-67.45-22.79-94.8-15.94-20.38-36.82-36-54.94-54.34-20.24-20.43-35.2-44.21-40.53-72.81-10.13-54.32,11.43-110.63,39.7-156.14,31.19-50.23,74.59-94.48,125.32-125,43.18-26,97.92-44.91,147.24-25.06C561.58,72.78,582,92.26,602,111c17.18,16.17,35.62,34,59.1,40.17,26.91,7.09,53.71-4,73.73-21.93,24-21.47,40.31-51,53.45-79.94,6.42-14.16,12.13-28.63,17.37-43.26C807.78,0,798.12-2.61,796,3.41c-11,30.71-24,61.2-42.32,88.33-15.87,23.51-38.4,47.63-68.11,51.26-24,2.93-44.23-10.21-61.55-25.33-20-17.45-38-37.15-60.37-51.77-22.75-14.88-49-22.66-76.19-21.73-25.17.87-49.67,8-72.57,18.22C361.67,86,315.44,126.23,279.7,171.7,245,215.92,216.8,269,211.79,325.83c-2.44,27.7,1.5,56.17,14.08,81.16,12,23.92,31.38,42.47,50.94,60.25,18.7,17,37.89,34.36,48.52,57.8,6.68,14.73,9,28.94,8.64,44.51-.6,26.58-11,53.05-24.7,76.46-22.19,37.8-53,70.2-85.16,99.67-51.28,47-108.28,87.7-166.48,125.65Q30.47,889,2.79,906c-5.48,3.36-.46,12,5.05,8.64Z" style="fill:url(#Dégradé_sans_nom_452)"/><path d="M1466.63,16c-73.56,3.19-147.14,8.78-220,19.68-50.37,7.53-100.72,17.52-149.17,33.46-32,10.55-63.86,23.73-91.86,42.76-18.87,12.82-36.16,28.51-48.29,48-17.46,28.08-21.11,61.59-11.52,93.25,14.82,48.91,51.4,90.14,54.33,142.73A130.74,130.74,0,0,1,982.57,468c-10.29,17.8-24.68,32.71-40.78,45.36-37.38,29.4-82.33,48.38-124.28,70.13-51.14,26.52-100.42,56.88-141.81,97.37-52,50.9-89.62,115.25-111.11,184.64q-6.45,20.82-11,42.16c-1.37,6.27,8.27,8.95,9.64,2.65,15.07-69.42,44.89-135.74,90.36-190.65,38.28-46.24,86.36-82,138.49-111.15,43.39-24.31,89.63-43.74,131.7-70.38,35.81-22.68,66.93-52.38,80-93.74,8.44-26.66,8.34-54.76.63-81.56-7.12-24.75-19.6-47.45-31.11-70.33-10.78-21.44-21.38-44.1-22.87-68.42a96.7,96.7,0,0,1,4.43-35.31q.93-2.94,2-5.82c1-2.76,1-2.64,2.09-5,8.49-18.69,20.94-33.1,36.77-46.28,22.45-18.68,50.17-32.54,77.66-43.31,42.72-16.74,87.7-27.53,132.74-35.87,66.13-12.24,133.23-19,200.31-23.29q30.08-1.93,60.18-3.22c6.41-.28,6.45-10.28,0-10Z" style="fill:url(#Dégradé_sans_nom_367-2)"/><path d="M936.08,904.71C855.72,843.8,776.65,780.57,703.51,711.06c-43-40.87-85.43-84.23-118.3-133.89-10-15-19.65-32-26-47.92a152.28,152.28,0,0,1-6.53-20.33c-.72-3-1.34-6-1.82-9.07a33.93,33.93,0,0,1-.48-3.56c-.15-1.45-.29-2.9-.38-4.35a82.61,82.61,0,0,1,.45-15.72c-.19,1.5.27-1.69.39-2.35.22-1.19.46-2.38.74-3.56a68.36,68.36,0,0,1,2-6.74,45.9,45.9,0,0,1,11.65-18.41c6.81-6.43,15.85-10.61,24.92-13.56,27.91-9.07,58.21-11,87.14-15,44.32-6,88.29-14,131.4-26.07,97.16-27.19,188-72.54,270.79-129.82,29-20.09,57-41.64,85.42-62.63,19.29-14.25,39.53-29.85,61.78-38.85,8.13-3.28,16-5.4,24.22-5.21a37.73,37.73,0,0,1,21.48,7.37c19.14,13.62,24.5,40.73,26.94,62.52,7.19,64.11-5.56,128.55-2.49,192.77,1,21.88,3.23,48.65,19,65.56,25.32,27.2,66.12,2.93,89.34-14.43,22.15-16.54,42-35.95,61-56,4.42-4.67-2.64-11.75-7.07-7.07-19.79,20.91-40.57,41.51-64.12,58.19-15.11,10.69-34.73,23.38-54.21,21.27-22.46-2.44-29.25-27.39-32-46.69-4.29-29.62-2.17-60.24-.64-90,1.73-33.5,4.21-67.1,2.93-100.65-1-26-3.45-55.25-18-77.68-10.6-16.39-28.4-26.92-48.19-24.93-20.91,2.1-40,14-57.09,25.39-25.93,17.31-50.39,36.81-75.47,55.32-75.74,55.86-156.55,103.76-245.19,136.21a844.25,844.25,0,0,1-150.94,39.57c-34.32,5.74-69.08,8.74-103.3,15-21,3.86-44.89,9.57-59,26.95-8.16,10-12.22,22.59-13.53,35.31-2.88,27.91,8.59,56,21.67,80,25,45.8,60.76,85.8,96.93,123,63,64.8,132.66,123.15,203.49,179.17q34,26.92,68.67,53.11c5.13,3.89,10.12-4.79,5.05-8.63Z" style="fill:url(#Dégradé_sans_nom_367-3)"/></g></g></svg>