<svg width="40" height="40" viewBox="0 0 40 40" fill="none" xmlns="http://www.w3.org/2000/svg">
<path d="M32 18.3333H8.66671C6.82576 18.3333 5.33337 19.8257 5.33337 21.6666V33.3333C5.33337 35.1743 6.82576 36.6666 8.66671 36.6666H32C33.841 36.6666 35.3334 35.1743 35.3334 33.3333V21.6666C35.3334 19.8257 33.841 18.3333 32 18.3333Z" stroke="white" stroke-width="2" stroke-linecap="round" stroke-linejoin="round"/>
<path d="M12 18.3333V11.6666C12 9.45651 12.878 7.33689 14.4408 5.77409C16.0036 4.21129 18.1232 3.33331 20.3333 3.33331C22.5435 3.33331 24.6631 4.21129 26.2259 5.77409C27.7887 7.33689 28.6667 9.45651 28.6667 11.6666V18.3333" stroke="white" stroke-width="2" stroke-linecap="round" stroke-linejoin="round"/>
</svg>
