<svg xmlns="http://www.w3.org/2000/svg" xmlns:xlink="http://www.w3.org/1999/xlink" viewBox="0 0 234.53 361.6"><defs><linearGradient id="Dégradé_sans_nom_21" x1="145.23" y1="8.79" x2="145.23" y2="6.32" gradientUnits="userSpaceOnUse"><stop offset="0" stop-color="gray"/><stop offset="1"/></linearGradient><linearGradient id="Dégradé_sans_nom_21-2" x1="77.06" y1="34.21" x2="77.06" y2="31.73" xlink:href="#Dégradé_sans_nom_21"/><linearGradient id="Dégradé_sans_nom_21-3" x1="80.6" y1="282.41" x2="80.6" y2="279.94" xlink:href="#Dégradé_sans_nom_21"/><linearGradient id="Dégradé_sans_nom_21-4" x1="63.82" y1="361.6" x2="63.82" y2="359.12" xlink:href="#Dégradé_sans_nom_21"/><linearGradient id="Dégradé_sans_nom_21-5" x1="109.62" y1="354.97" x2="109.62" y2="352.49" xlink:href="#Dégradé_sans_nom_21"/><linearGradient id="Dégradé_sans_nom_21-6" x1="152.57" y1="325.39" x2="152.57" y2="322.91" xlink:href="#Dégradé_sans_nom_21"/><linearGradient id="Dégradé_sans_nom_21-7" x1="196.33" y1="324.15" x2="196.33" y2="321.67" xlink:href="#Dégradé_sans_nom_21"/><linearGradient id="Dégradé_sans_nom_21-8" x1="233.29" y1="260.26" x2="233.29" y2="257.79" xlink:href="#Dégradé_sans_nom_21"/><linearGradient id="Dégradé_sans_nom_21-9" x1="1.24" y1="262.61" x2="1.24" y2="260.14" xlink:href="#Dégradé_sans_nom_21"/><linearGradient id="Dégradé_sans_nom_21-10" x1="90.81" y1="76.09" x2="90.81" y2="73.61" xlink:href="#Dégradé_sans_nom_21"/><linearGradient id="Dégradé_sans_nom_21-11" x1="20.3" y1="98.15" x2="20.3" y2="95.68" xlink:href="#Dégradé_sans_nom_21"/><linearGradient id="Dégradé_sans_nom_21-12" x1="14.24" y1="339.21" x2="14.24" y2="336.74" xlink:href="#Dégradé_sans_nom_21"/><linearGradient id="Dégradé_sans_nom_21-13" x1="198.4" y1="293.04" x2="198.4" y2="291.37" xlink:href="#Dégradé_sans_nom_21"/></defs><g id="Calque_2" data-name="Calque 2"><g id="Calque_1-2" data-name="Calque 1"><circle cx="219.94" cy="90.16" r="1.24" style="fill:gray"/><circle cx="153.01" cy="109.03" r="1.24" style="fill:gray;opacity:0.5700000000000001"/><circle cx="50.95" cy="134.08" r="1.24" style="fill:gray"/><circle cx="209.06" cy="119.77" r="2.4" style="fill:#fff"/><circle cx="145.23" cy="7.56" r="1.24" style="fill:url(#Dégradé_sans_nom_21)"/><circle cx="77.06" cy="32.97" r="1.24" style="fill:url(#Dégradé_sans_nom_21-2)"/><circle cx="80.6" cy="281.18" r="1.24" style="fill:url(#Dégradé_sans_nom_21-3)"/><circle cx="63.82" cy="360.36" r="1.24" style="fill:url(#Dégradé_sans_nom_21-4)"/><circle cx="109.62" cy="353.73" r="1.24" style="fill:url(#Dégradé_sans_nom_21-5)"/><circle cx="152.57" cy="324.15" r="1.24" style="fill:url(#Dégradé_sans_nom_21-6)"/><circle cx="196.33" cy="322.91" r="1.24" style="fill:url(#Dégradé_sans_nom_21-7)"/><circle cx="233.29" cy="259.02" r="1.24" style="fill:url(#Dégradé_sans_nom_21-8)"/><circle cx="1.24" cy="261.38" r="1.24" style="fill:url(#Dégradé_sans_nom_21-9)"/><circle cx="186.72" cy="246.05" r="2.26" style="fill:#f2f2f2"/><path d="M101.59,3.47l.24.63a.07.07,0,0,0,0,0,.07.07,0,0,0,.06,0l.23-.63a1.87,1.87,0,0,1,1.11-1.11l.63-.23a.07.07,0,0,0,0-.12l-.63-.23A1.87,1.87,0,0,1,102.17.67L101.94,0a.07.07,0,0,0-.06,0,.07.07,0,0,0,0,0l-.24.63a1.86,1.86,0,0,1-1.1,1.11L99.85,2a.07.07,0,0,0,0,.12l.64.23A1.86,1.86,0,0,1,101.59,3.47Z" style="fill:#fff"/><path d="M219.65,355.12l.23.64a.06.06,0,0,0,.12,0l.23-.64a1.86,1.86,0,0,1,1.11-1.1l.63-.24s0,0,0,0a.07.07,0,0,0,0-.06l-.63-.23a1.87,1.87,0,0,1-1.11-1.11l-.23-.63a.06.06,0,0,0-.12,0l-.23.63a1.87,1.87,0,0,1-1.11,1.11l-.63.23a.07.07,0,0,0,0,.06s0,0,0,0l.63.24A1.86,1.86,0,0,1,219.65,355.12Z" style="fill:#999"/><circle cx="90.81" cy="74.85" r="1.24" style="fill:url(#Dégradé_sans_nom_21-10)"/><circle cx="20.3" cy="96.91" r="1.24" style="fill:url(#Dégradé_sans_nom_21-11)"/><circle cx="14.24" cy="337.97" r="1.24" style="fill:url(#Dégradé_sans_nom_21-12)"/><path d="M192.77,173.73l-.23-.64a.08.08,0,0,0-.06,0,.07.07,0,0,0-.06,0l-.23.64a1.86,1.86,0,0,1-1.11,1.1l-.63.24s0,0,0,.05a.07.07,0,0,0,0,.06l.63.23a1.87,1.87,0,0,1,1.11,1.11l.23.63a.05.05,0,0,0,.06,0,.06.06,0,0,0,.06,0l.23-.63a1.87,1.87,0,0,1,1.11-1.11l.63-.23a.07.07,0,0,0,0-.06s0-.05,0-.05l-.63-.24A1.86,1.86,0,0,1,192.77,173.73Z" style="fill:gray"/><path d="M107.84,305.94l-.23-.64a.08.08,0,0,0-.06,0,.07.07,0,0,0-.06,0l-.23.64a1.88,1.88,0,0,1-1.11,1.1l-.63.24a.05.05,0,0,0,0,.05.05.05,0,0,0,0,.06l.63.24a1.86,1.86,0,0,1,1.11,1.1l.23.64a.06.06,0,0,0,.06,0,.07.07,0,0,0,.06,0l.23-.64a1.83,1.83,0,0,1,1.11-1.1l.63-.24a.07.07,0,0,0,0-.06.07.07,0,0,0,0-.05L109,307A1.86,1.86,0,0,1,107.84,305.94Z" style="fill:gray"/><path d="M30.87,180.83l-.33-.9a.08.08,0,0,0-.08-.06.08.08,0,0,0-.08.06l-.34.9a2.66,2.66,0,0,1-1.57,1.58l-.91.33a.11.11,0,0,0,0,.09.1.1,0,0,0,0,.08l.91.33A2.66,2.66,0,0,1,30,184.82l.34.9a.08.08,0,0,0,.08.06.08.08,0,0,0,.08-.06l.33-.9a2.68,2.68,0,0,1,1.58-1.58l.9-.33a.09.09,0,0,0,.06-.08.1.1,0,0,0-.06-.09l-.9-.33A2.68,2.68,0,0,1,30.87,180.83Z" style="fill:#fff"/><path d="M30.87,291.05l-.33-.91a.09.09,0,0,0-.08-.05.08.08,0,0,0-.08.05l-.34.91a2.66,2.66,0,0,1-1.57,1.58l-.91.33a.09.09,0,0,0,0,.16l.91.33A2.66,2.66,0,0,1,30,295l.34.91a.08.08,0,0,0,.08.05.09.09,0,0,0,.08-.05l.33-.91a2.68,2.68,0,0,1,1.58-1.58l.9-.33a.08.08,0,0,0,0-.16l-.9-.33A2.68,2.68,0,0,1,30.87,291.05Z" style="fill:#b3b3b3"/><path d="M172.65,42.21l-.33-.91a.09.09,0,0,0-.16,0l-.33.91a2.66,2.66,0,0,1-1.58,1.57l-.91.34a.08.08,0,0,0-.05.08.09.09,0,0,0,.05.08l.91.33a2.68,2.68,0,0,1,1.58,1.58l.33.9a.08.08,0,0,0,.16,0l.33-.9a2.68,2.68,0,0,1,1.58-1.58l.91-.33a.09.09,0,0,0,.05-.08.08.08,0,0,0-.05-.08l-.91-.34A2.66,2.66,0,0,1,172.65,42.21Z" style="fill:#b3b3b3"/><circle cx="198.4" cy="292.21" r="0.83" style="fill:url(#Dégradé_sans_nom_21-13)"/><path d="M225.84,195.06l.43,1.18a.12.12,0,0,0,.11.08.11.11,0,0,0,.1-.08l.44-1.18A3.49,3.49,0,0,1,229,193l1.17-.43a.12.12,0,0,0,.08-.11.11.11,0,0,0-.08-.1l-1.17-.44a3.44,3.44,0,0,1-2.06-2.06l-.44-1.17a.11.11,0,0,0-.1-.08.12.12,0,0,0-.11.08l-.43,1.17a3.49,3.49,0,0,1-2.06,2.06l-1.18.44a.1.1,0,0,0-.07.1.11.11,0,0,0,.07.11l1.18.43A3.55,3.55,0,0,1,225.84,195.06Z" style="fill:#b3b3b3"/><path d="M144.69,278.69l.44,1.17a.1.1,0,0,0,.1.08.12.12,0,0,0,.11-.08l.43-1.17a3.47,3.47,0,0,1,2.06-2.06l1.18-.44a.11.11,0,0,0,.07-.1A.12.12,0,0,0,149,276l-1.18-.43a3.52,3.52,0,0,1-2.06-2.06l-.43-1.18a.12.12,0,0,0-.11-.08.1.1,0,0,0-.1.08l-.44,1.18a3.49,3.49,0,0,1-2.06,2.06l-1.18.43a.12.12,0,0,0-.07.11.11.11,0,0,0,.07.1l1.18.44A3.44,3.44,0,0,1,144.69,278.69Z" style="fill:#e6e6e6"/><path d="M36.32,66.52l.73,2a.17.17,0,0,0,.17.12.2.2,0,0,0,.18-.12l.73-2a5.8,5.8,0,0,1,3.43-3.44l2-.72a.2.2,0,0,0,0-.36l-2-.72a5.8,5.8,0,0,1-3.43-3.44l-.73-2a.2.2,0,0,0-.18-.12.17.17,0,0,0-.17.12l-.73,2a5.82,5.82,0,0,1-3.44,3.44l-2,.72a.19.19,0,0,0,0,.36l2,.72A5.82,5.82,0,0,1,36.32,66.52Z" style="fill:#f2f2f2"/><path d="M66.44,313.74l.73,2a.17.17,0,0,0,.17.12.18.18,0,0,0,.18-.12l.73-2a5.76,5.76,0,0,1,3.43-3.43l2-.73a.2.2,0,0,0,.12-.18.19.19,0,0,0-.12-.17l-2-.73a5.78,5.78,0,0,1-3.43-3.43l-.73-2a.19.19,0,0,0-.18-.13.18.18,0,0,0-.17.13l-.73,2A5.81,5.81,0,0,1,63,308.5l-2,.73a.19.19,0,0,0-.13.17.19.19,0,0,0,.13.18l2,.73A5.77,5.77,0,0,1,66.44,313.74Z" style="fill:#f2f2f2"/></g></g></svg>